IKResults
version=1
nRows=11
nColumns=40
inDegrees=yes

Units are S.I. units (second, meters, Newtons, ...)
Angles are in degrees.

endheader
time	pelvis_tilt	pelvis_list	pelvis_rotation	pelvis_tx	pelvis_ty	pelvis_tz	hip_flexion_r	hip_adduction_r	hip_rotation_r	knee_angle_r	knee_angle_r_beta	ankle_angle_r	subtalar_angle_r	mtp_angle_r	hip_flexion_l	hip_adduction_l	hip_rotation_l	knee_angle_l	knee_angle_l_beta	ankle_angle_l	subtalar_angle_l	mtp_angle_l	lumbar_extension	lumbar_bending	lumbar_rotation	arm_flex_r	arm_add_r	arm_rot_r	elbow_flex_r	pro_sup_r	wrist_flex_r	wrist_dev_r	arm_flex_l	arm_add_l	arm_rot_l	elbow_flex_l	pro_sup_l	wrist_flex_l	wrist_dev_l
      1.63000000	     18.39376042	     -0.98468569	     -2.09564126	      0.33789984	      0.94789242	      1.02330735	    -22.79261512	      3.26495132	     -2.93203819	    -14.94930895	     -0.26091466	     11.25795076	     -4.46584098	     -0.82808718	      1.34176891	      1.83638071	      8.05296121	    -40.08242859	     -0.69957035	      9.77861694	     17.57474082	      7.54028680	    -23.32420034	     -1.50488726	      2.46224453	     -4.01108000	    -12.51498383	      0.72768104	     47.57731165	     89.95437384	      0.00000000	      0.00000000	     -3.75276997	      6.79981081	     16.59412900	     12.70326881	     89.95437384	      0.00000000	      0.00000000
      1.64000000	     18.33406208	     -0.93018873	     -2.36812488	      0.34739687	      0.94683778	      1.02385920	    -23.46192987	      3.17547848	     -2.20005649	    -14.83924138	     -0.25899362	     11.44260919	     -5.16347478	     -0.38711995	      1.66418187	      1.92164095	      9.06481633	    -37.06326095	     -0.64687594	      9.80811276	     17.16819129	      7.57441824	    -23.31623730	     -1.70352404	      2.84675986	     -3.86534757	    -12.73020088	      0.61966696	     49.01305914	     89.95437384	      0.00000000	      0.00000000	     -4.80602189	      6.98342878	     15.71090267	     13.10892348	     89.95437384	      0.00000000	      0.00000000
      1.65000000	     18.04074734	     -1.00652903	     -2.40346161	      0.35688428	      0.94521800	      1.02401315	    -23.75688957	      3.22300373	     -2.24101342	    -14.96003474	     -0.26110186	     11.91555351	     -4.72256134	     -0.49981413	      2.30693130	      2.19048704	     10.26358253	    -34.06139137	     -0.59448343	      9.95367415	     16.65832948	      7.06115022	    -23.06452479	     -1.65724790	      3.10593357	     -3.80740139	    -12.91729603	      0.36409859	     50.47499675	     89.95437384	      0.00000000	      0.00000000	     -5.57864531	      7.03708522	     16.00667183	     13.20372351	     89.95437384	      0.00000000	      0.00000000
      1.66000000	     18.11294179	     -0.74549414	     -2.77591233	      0.36656191	      0.94423802	      1.02430839	    -24.54119464	      2.77657272	     -2.01529015	    -14.82454597	     -0.25873714	     12.21306270	     -4.88965017	     -0.44654976	      2.20483604	      1.98302396	     11.78755011	    -30.61873993	     -0.53439782	      9.46797784	     15.61537812	      6.68531970	    -23.16883903	     -2.08615067	      3.41630767	     -3.53343556	    -13.12972657	      0.40085930	     51.62863651	     89.95437384	      0.00000000	      0.00000000	     -6.49522794	      7.11184584	     16.06729633	     13.50174582	     89.95437384	      0.00000000	      0.00000000
      1.67000000	     18.03348318	     -0.68439208	     -2.99201166	      0.37618774	      0.94290215	      1.02439231	    -25.10475527	      2.57252289	     -1.98541984	    -14.84907152	     -0.25916519	     12.45100365	     -4.72120857	     -0.43704631	      2.35013876	      2.03848339	     13.42320627	    -27.44866238	     -0.47906953	      9.02374790	     14.06793262	      5.97053484	    -23.12747575	     -2.23866463	      3.70900679	     -3.34745777	    -13.28849152	      0.20776004	     52.81047702	     89.95437384	      0.00000000	      0.00000000	     -7.28394769	      7.14765401	     16.51251005	     13.73665390	     89.95437384	      0.00000000	      0.00000000
      1.68000000	     17.96874917	     -0.59602572	     -3.09007536	      0.38599169	      0.94155796	      1.02433367	    -25.70967382	      2.37389235	     -2.15039590	    -14.89295543	     -0.25993111	     12.73195668	     -4.50251824	     -0.43212731	      2.45430088	      2.03832229	     15.17888185	    -24.38184982	     -0.42554356	      8.47474729	     11.77222838	      5.06606911	    -23.10287957	     -2.39664016	      3.88858964	     -3.13392403	    -13.45002485	      0.14089024	     53.84612509	     89.95437384	      0.00000000	      0.00000000	     -7.99273141	      7.19385306	     16.98923141	     13.87203901	     89.95437384	      0.00000000	      0.00000000
      1.69000000	     17.89188883	     -0.48292709	     -3.17497289	      0.39584808	      0.94017409	      1.02400596	    -26.26395274	      2.12086921	     -2.33444614	    -14.94211079	     -0.26078903	     13.10308594	     -4.11347900	     -0.48144578	      2.54645323	      1.94703541	     16.92678796	    -21.48413148	     -0.37496883	      7.65708175	      9.01053359	      4.12378422	    -23.03090999	     -2.54745235	      4.04763318	     -2.94913297	    -13.56338357	     -0.04948317	     54.75679670	     89.95437384	      0.00000000	      0.00000000	     -8.62293864	      7.20289061	     17.49946788	     13.86466806	     89.95437384	      0.00000000	      0.00000000
      1.70000000	     17.87380870	     -0.46789860	     -3.45221751	      0.40606546	      0.93863697	      1.02392324	    -26.81655679	      1.83424374	     -2.56929306	    -15.19164393	     -0.26514421	     13.39137631	     -3.27211524	     -0.79830989	      2.75404421	      2.27558776	     20.43393683	    -19.28074733	     -0.33651252	      6.11330754	      5.38310682	     -5.43084156	    -22.99686612	     -2.66683050	      4.39086429	     -2.79623491	    -13.81953244	     -0.00574847	     55.70198519	     89.95437384	      0.00000000	      0.00000000	     -9.28052231	      7.16354436	     18.22888089	     13.92251651	     89.95437384	      0.00000000	      0.00000000
      1.71000000	     17.86451854	     -0.18798895	     -3.61747112	      0.41618170	      0.93727337	      1.02329534	    -27.34447707	      1.30814027	     -2.85790110	    -15.48366228	     -0.27024089	     13.64239287	     -2.59757892	     -0.84340517	      2.76532202	      1.85532720	     22.48292291	    -16.92940167	     -0.29547380	      5.21460982	      2.56930294	     -5.70691932	    -22.96372045	     -2.99688560	      4.55962068	     -2.64250307	    -13.93386486	     -0.16907182	     56.48388018	     89.95437384	      0.00000000	      0.00000000	     -9.91984559	      7.18634276	     18.35293696	     13.97878133	     89.95437384	      0.00000000	      0.00000000
      1.72000000	     17.60247035	     -0.00093462	     -3.41683423	      0.42594946	      0.93553447	      1.02210285	    -27.53149991	      1.01720572	     -3.44052324	    -15.86078255	     -0.27682288	     14.15478716	     -1.71766307	     -1.17540651	      3.19453917	      1.39425362	     22.88217281	    -15.07049047	     -0.26302968	      4.84763845	      0.68448981	     -5.83905599	    -22.73480146	     -3.07180357	      4.51136029	     -2.55810677	    -14.08216023	     -0.36114181	     57.26703686	     89.95437384	      0.00000000	      0.00000000	    -10.09482747	      7.15160858	     19.28812966	     13.58358668	     89.95437384	      0.00000000	      0.00000000
      1.73000000	     17.77715709	      0.51400435	     -3.89960145	      0.43629995	      0.93456982	      1.02163172	    -27.97012417	      0.02453781	     -3.78955382	    -16.68184348	     -0.29115309	     14.24217328	     -1.05665495	     -1.59818276	      2.81776088	      0.63458980	     25.02543488	    -13.08054043	     -0.22829850	      3.72222915	     -2.14266327	     -5.71128252	    -22.86152718	     -3.78061434	      4.76978688	     -2.29689790	    -14.15915156	     -0.37024259	     57.71682458	     89.95437384	      0.00000000	      0.00000000	    -10.60937665	      7.09389566	     20.22888852	     13.66780821	     89.95437384	      0.00000000	      0.00000000
